<svg xmlns="http://www.w3.org/2000/svg" viewBox="0 0 1024 1024">
  <defs>
    <linearGradient id="plate-dev" x1="0" y1="0" x2="0" y2="1">
      <stop offset="0" stop-color="#2A70FF"/>
      <stop offset="1" stop-color="#0751EC"/>
    </linearGradient>
  </defs>
  <g>
    <g transform="translate(57.344 57.344) scale(.888)">
      <rect x="48" y="48" width="928" height="928" rx="218" fill="url(#plate-dev)"/>
      <g transform="translate(512 512) scale(1.12) translate(-498 -522)">
        <path fill="#FFFFFF" d="M332 262H512A240 240 0 0 1 512 742H380Q370 742 361 747L292 785Q262 801 268 768C284 728 292 700 292 660V302Q292 262 332 262Z"/>
        <rect x="410" y="420" width="78" height="164" rx="39" fill="#0B5CFF"/>
        <rect x="570" y="420" width="78" height="164" rx="39" fill="#0B5CFF"/>
      </g>
    </g>
    <g transform="translate(512 512) scale(.94854384) translate(-512 -512)">
      <rect x="660" y="752" width="272" height="144" rx="36" fill="#FF5A4F" stroke="#FFFFFF" stroke-width="12"/>
      <text x="796" y="827" fill="#FFFFFF" font-family="Inter, Arial, sans-serif" font-size="68" font-weight="800" text-anchor="middle" dominant-baseline="central" letter-spacing="2">DEV</text>
    </g>
  </g>
</svg>
