<svg xmlns="http://www.w3.org/2000/svg" viewBox="0 0 1024 1024">
  <defs>
    <mask id="agent-pod-dev" maskUnits="userSpaceOnUse">
      <rect width="1024" height="1024" fill="black"/>
      <path
        fill="white"
        d="M392 276c-79 2-146 53-163 137-20 98 23 199 108 268 93 77 209 102 315 69 49-15 84-24 127 3l58 36c-20-35-38-69-27-103 33-90-26-177-116-208-82-28-128-61-163-117-34-54-81-87-139-85Z"
      />
      <rect x="331" y="391" width="95" height="95" rx="24" fill="black"/>
      <rect x="449" y="487" width="95" height="95" rx="24" fill="black"/>
      <rect x="571" y="568" width="95" height="95" rx="24" fill="black"/>
    </mask>
  </defs>
  <g transform="translate(30.72 30.72) scale(.94)">
    <rect x="48" y="48" width="928" height="928" rx="218" fill="#0B5CFF"/>
    <rect width="1024" height="1024" fill="#FFFFFF" mask="url(#agent-pod-dev)"/>
  </g>
  <g transform="translate(512 512) scale(1.06818) translate(-512 -512)">
    <rect x="660" y="752" width="272" height="144" rx="36" fill="#FF5A4F" stroke="#FFFFFF" stroke-width="12"/>
    <text x="796" y="827" fill="#FFFFFF" font-family="Inter, Arial, sans-serif" font-size="68" font-weight="800" text-anchor="middle" dominant-baseline="central" letter-spacing="2">DEV</text>
  </g>
</svg>
